<svg xmlns="http://www.w3.org/2000/svg" width="280" height="100" fill="none">
  <path fill="#8B8B82" d="M50 50.1074V79L3 55.7603V26.2397l47 23.8677Z" />
  <path fill="#222" d="M50 31.8926V3L3 26.2397v29.5206l47-23.8677Z" />
  <path
    fill="#222"
    fill-opacity=".33"
    d="M3 55.7603 32.14 41l4.7 2.5124L8.0133 58.2727 3 55.7603Z"
  />
  <path fill="#8B8B82" d="M50 68.1074V97l47-23.2397V44.2397L50 68.1074Z" />
  <path fill="#222" d="M50 50.1158V21l47 23.2397v29.5206L50 50.1158Z" />
  <path
    fill="#222"
    fill-opacity=".33"
    d="M97 73.7603 67.86 59l-4.7 2.5124 28.8267 14.7603L97 73.7603Z"
  />
  <path
    fill="#222"
    d="M134.986 68.358h-.434c-.868 1.9427-2.067 3.4927-3.596 4.65-1.488 1.1573-3.472 1.736-5.952 1.736-1.819 0-3.493-.3307-5.022-.992-1.488-.7027-2.769-1.736-3.844-3.1-1.075-1.4053-1.901-3.162-2.48-5.27-.579-2.108-.868-4.5673-.868-7.378 0-5.6213 1.116-9.8167 3.348-12.586 2.232-2.7693 5.187-4.154 8.866-4.154 2.48 0 4.464.5787 5.952 1.736 1.529 1.1573 2.728 2.7073 3.596 4.65h.434V28.12h7.936V74h-7.936v-5.642Zm-6.634.062c.909 0 1.757-.1033 2.542-.31.827-.248 1.529-.5787 2.108-.992.62-.4547 1.095-1.0127 1.426-1.674.372-.7027.558-1.5087.558-2.418V52.982c0-.9093-.186-1.6947-.558-2.356-.331-.7027-.806-1.2607-1.426-1.674-.579-.4547-1.281-.7853-2.108-.992-.785-.248-1.633-.372-2.542-.372-2.315 0-4.113.7027-5.394 2.108-1.24 1.4053-1.86 3.3273-1.86 5.766v5.084c0 2.4387.62 4.3607 1.86 5.766 1.281 1.4053 3.079 2.108 5.394 2.108Zm33.828-31.372c-1.86 0-3.183-.3927-3.968-1.178-.744-.7853-1.116-1.736-1.116-2.852V31.53c0-1.116.372-2.0667 1.116-2.852.785-.7853 2.108-1.178 3.968-1.178 1.86 0 3.162.3927 3.906 1.178.785.7853 1.178 1.736 1.178 2.852v1.488c0 1.116-.393 2.0667-1.178 2.852-.744.7853-2.046 1.178-3.906 1.178Zm-14.508 30.69h10.54V48.27h-10.54v-6.262h18.476v25.73h9.796V74h-28.272v-6.262ZM187.018 74l-11.47-31.992h8.308l4.278 13.578 3.596 11.78h.434l3.596-11.78 4.278-13.578h7.998L196.566 74h-9.548Zm48.149 0c-1.942 0-3.451-.4753-4.526-1.426-1.033-.992-1.653-2.356-1.86-4.092h-.31c-.578 1.984-1.715 3.534-3.41 4.65-1.694 1.0747-3.782 1.612-6.262 1.612-3.224 0-5.786-.8473-7.688-2.542-1.901-1.6947-2.852-4.0507-2.852-7.068 0-6.448 4.733-9.672 14.198-9.672h5.642v-2.108c0-2.0253-.496-3.5547-1.488-4.588s-2.604-1.55-4.836-1.55c-2.025 0-3.658.3927-4.898 1.178-1.24.7853-2.294 1.798-3.162 3.038l-4.526-3.844c.992-1.7773 2.584-3.2653 4.774-4.464 2.232-1.24 5.105-1.86 8.618-1.86 4.216 0 7.502.992 9.858 2.976 2.398 1.9427 3.596 4.8567 3.596 8.742v15.066h3.782V74h-4.65Zm-13.702-4.712c1.902 0 3.472-.434 4.712-1.302 1.282-.9093 1.922-2.1287 1.922-3.658V60.05h-5.456c-4.34 0-6.51 1.364-6.51 4.092v1.24c0 1.2813.476 2.2527 1.426 2.914.951.6613 2.253.992 3.906.992ZM241.033 74V42.008h7.936v5.642h.31c.703-1.736 1.777-3.224 3.224-4.464 1.488-1.2813 3.534-1.922 6.138-1.922 3.141 0 5.683 1.054 7.626 3.162 1.984 2.0667 2.976 5.0427 2.976 8.928V74h-7.936V54.47c0-4.6293-2.005-6.944-6.014-6.944-.827 0-1.612.1033-2.356.31-.744.2067-1.426.5373-2.046.992-.579.4133-1.054.93-1.426 1.55-.331.62-.496 1.364-.496 2.232V74h-7.936Z"
  />
</svg>
